<?xml version="1.0" encoding="iso-8859-1"?>
<!-- Generator: Adobe Illustrator 18.0.0, SVG Export Plug-In . SVG Version: 6.00 Build 0)  -->
<!DOCTYPE svg PUBLIC "-//W3C//DTD SVG 1.1//EN" "http://www.w3.org/Graphics/SVG/1.1/DTD/svg11.dtd">
<svg version="1.1" id="Capa_1" xmlns="http://www.w3.org/2000/svg" xmlns:xlink="http://www.w3.org/1999/xlink" x="0px" y="0px"
	 viewBox="0 0 217.205 217.205" style="enable-background:new 0 0 217.205 217.205;" xml:space="preserve">
<g>
	<path d="M128.606,31.161c1.281-2.789,2.002-5.888,2.002-9.153C130.608,9.873,120.735,0,108.601,0
		c-12.136,0-22.01,9.873-22.01,22.008c0,3.266,0.721,6.364,2.002,9.154c-42.304,9.197-74.086,46.927-74.086,91.946
		c0,51.886,42.21,94.098,94.094,94.098c51.886,0,94.098-42.212,94.098-94.098C202.698,78.087,170.913,40.357,128.606,31.161z
		 M101.591,22.008c0-3.864,3.144-7.008,7.01-7.008c3.864,0,7.008,3.144,7.008,7.008c0,3.863-3.144,7.006-7.008,7.006
		C104.735,29.014,101.591,25.871,101.591,22.008z M108.601,202.205c-43.612,0-79.094-35.483-79.094-79.098
		c0-43.612,35.481-79.094,79.094-79.094c43.614,0,79.098,35.481,79.098,79.094C187.698,166.722,152.215,202.205,108.601,202.205z"/>
	<path d="M129.959,105.733c-0.725-1.714-2.078-3.134-3.842-3.925l-52.38-23.475c-2.839-1.271-6.17-0.658-8.371,1.541
		c-2.2,2.201-2.813,5.531-1.54,8.371l23.384,52.155c0.716,1.751,2.084,3.202,3.875,4.005l52.379,23.475
		c0.985,0.441,2.029,0.656,3.065,0.656c0.027,0,0.056,0,0.083,0c4.114-0.033,7.438-3.378,7.438-7.5c0-1.287-0.323-2.498-0.895-3.556
		L129.959,105.733z M110.055,111.047L96.546,124.56l-10.979-24.487L110.055,111.047z M107.15,135.169l13.508-13.513l10.976,24.486
		L107.15,135.169z"/>
</g>
<g>
</g>
<g>
</g>
<g>
</g>
<g>
</g>
<g>
</g>
<g>
</g>
<g>
</g>
<g>
</g>
<g>
</g>
<g>
</g>
<g>
</g>
<g>
</g>
<g>
</g>
<g>
</g>
<g>
</g>
</svg>
